<svg width="58" height="58" viewBox="0 0 58 58" fill="none" xmlns="http://www.w3.org/2000/svg">
<mask id="mask0_15_241" style="mask-type:alpha" maskUnits="userSpaceOnUse" x="0" y="0" width="58" height="58">
<rect width="58" height="58" fill="#D9D9D9"/>
</mask>
<g mask="url(#mask0_15_241)">
<path d="M25.6166 40.1167L42.6541 23.0792L39.2707 19.6959L25.6166 33.35L18.7291 26.4625L15.3458 29.8459L25.6166 40.1167ZM28.9999 53.1667C25.6569 53.1667 22.5152 52.5323 19.5749 51.2636C16.6346 49.9948 14.077 48.273 11.902 46.098C9.727 43.923 8.00513 41.3653 6.73638 38.425C5.46763 35.4848 4.83325 32.3431 4.83325 29C4.83325 25.657 5.46763 22.5153 6.73638 19.575C8.00513 16.6348 9.727 14.0771 11.902 11.9021C14.077 9.72712 16.6346 8.00525 19.5749 6.7365C22.5152 5.46775 25.6569 4.83337 28.9999 4.83337C32.343 4.83337 35.4846 5.46775 38.4249 6.7365C41.3652 8.00525 43.9228 9.72712 46.0978 11.9021C48.2728 14.0771 49.9947 16.6348 51.2635 19.575C52.5322 22.5153 53.1666 25.657 53.1666 29C53.1666 32.3431 52.5322 35.4848 51.2635 38.425C49.9947 41.3653 48.2728 43.923 46.0978 46.098C43.9228 48.273 41.3652 49.9948 38.4249 51.2636C35.4846 52.5323 32.343 53.1667 28.9999 53.1667Z" fill="#9EBD54"/>
</g>
</svg>
